<svg xmlns="http://www.w3.org/2000/svg" xmlns:xlink="http://www.w3.org/1999/xlink" width="70" height="71" viewBox="0 0 70 71"><defs><path id="8vcya" d="M1535.38 571.36l-1.06-1.45a4.57 4.57 0 0 1-.04-5.31l1.03-1.47a4.56 4.56 0 0 0-1.58-6.65l-1.57-.84a4.54 4.54 0 0 1-2.34-4.78l.3-1.76a4.55 4.55 0 0 0-4.3-5.3l-1.79-.08a4.57 4.57 0 0 1-4.18-3.28l-.5-1.72a4.54 4.54 0 0 0-6.18-2.9l-1.65.7c-1.79.77-3.88.31-5.19-1.15l-1.18-1.34a4.54 4.54 0 0 0-6.83.06l-1.17 1.35a4.55 4.55 0 0 1-5.17 1.22l-1.67-.69a4.56 4.56 0 0 0-6.13 3.01l-.47 1.73a4.52 4.52 0 0 1-4.13 3.34l-1.79.1a4.55 4.55 0 0 0-4.21 5.38l.33 1.76a4.55 4.55 0 0 1-2.27 4.8l-1.56.88a4.55 4.55 0 0 0-1.46 6.67l1.06 1.44a4.57 4.57 0 0 1 .04 5.32l-1.03 1.47a4.56 4.56 0 0 0 1.58 6.65l1.57.84a4.54 4.54 0 0 1 2.34 4.78l-.3 1.76a4.55 4.55 0 0 0 4.3 5.3l1.79.07a4.57 4.57 0 0 1 4.18 3.29l.5 1.72c.76 2.63 3.66 4 6.18 2.9l1.65-.7a4.54 4.54 0 0 1 5.19 1.15l1.18 1.34a4.54 4.54 0 0 0 6.83-.06l1.17-1.35a4.56 4.56 0 0 1 5.17-1.22l1.67.69a4.56 4.56 0 0 0 6.13-3.01l.47-1.73a4.53 4.53 0 0 1 4.13-3.35l1.79-.1a4.55 4.55 0 0 0 4.21-5.37l-.33-1.76a4.55 4.55 0 0 1 2.27-4.8l1.56-.88a4.54 4.54 0 0 0 1.46-6.67z"/></defs><g><g transform="translate(-1467 -532)"><use fill="#ffb400" xlink:href="#8vcya"/></g></g></svg>