<svg xmlns="http://www.w3.org/2000/svg" width="19" height="23" viewBox="0 0 19 23">
  <metadata><?xpacket begin="﻿" id="W5M0MpCehiHzreSzNTczkc9d"?>
<x:xmpmeta xmlns:x="adobe:ns:meta/" x:xmptk="Adobe XMP Core 5.6-c138 79.159824, 2016/09/14-01:09:01        ">
   <rdf:RDF xmlns:rdf="http://www.w3.org/1999/02/22-rdf-syntax-ns#">
      <rdf:Description rdf:about=""/>
   </rdf:RDF>
</x:xmpmeta>
                                                                                                    
                                                                                                    
                                                                                                    
                                                                                                    
                                                                                                    
                                                                                                    
                                                                                                    
                                                                                                    
                                                                                                    
                                                                                                    
                                                                                                    
                                                                                                    
                                                                                                    
                                                                                                    
                                                                                                    
                                                                                                    
                                                                                                    
                                                                                                    
                                                                                                    
                                                                                                    
                           
<?xpacket end="w"?></metadata>
<defs>
    <style>
      .cls-1 {
        fill: #ffb400;
        fill-rule: evenodd;
      }
    </style>
  </defs>
  <path class="cls-1" d="M1328.42,642.393h0.15a4.231,4.231,0,0,0,3.26-1.452c1.77-2.069,1.48-5.613,1.45-5.951a4.9,4.9,0,0,0-2.24-4.319,5.087,5.087,0,0,0-2.49-.673h-0.08a5.051,5.051,0,0,0-2.49.653,4.9,4.9,0,0,0-2.27,4.339c-0.03.338-.32,3.882,1.46,5.951A4.179,4.179,0,0,0,1328.42,642.393Zm-3.47-7.285v-0.037c0.16-3.413,2.51-3.781,3.52-3.781h0.05c1.25,0.028,3.37.551,3.51,3.781a0.048,0.048,0,0,0,.01.037c0,0.035.33,3.274-1.14,4.978a3,3,0,0,1-2.38,1.021h-0.05a2.989,2.989,0,0,1-2.38-1.021C1324.63,638.39,1324.94,635.138,1324.95,635.108Zm13.04,13.162v-0.135c-0.03-.942-0.09-3.147-2.1-3.852a0.223,0.223,0,0,1-.04-0.016,13.143,13.143,0,0,1-3.84-1.8,0.612,0.612,0,0,0-.87.158,0.652,0.652,0,0,0,.15.893,14.3,14.3,0,0,0,4.22,1.987c1.08,0.4,1.2,1.582,1.23,2.669a0.455,0.455,0,0,0,.01.117,9.894,9.894,0,0,1-.1,1.471,17.961,17.961,0,0,1-16.3,0,8.708,8.708,0,0,1-.1-1.47c0-.038.01-0.076,0.01-0.121,0.03-1.084.15-2.27,1.23-2.666a14.383,14.383,0,0,0,4.22-1.987,0.652,0.652,0,0,0,.15-0.893,0.612,0.612,0,0,0-.87-0.158,13.062,13.062,0,0,1-3.84,1.8l-0.04.016c-2.01.709-2.07,2.914-2.1,3.853v0.133a7.469,7.469,0,0,0,.23,2.158,0.59,0.59,0,0,0,.25.3,19,19,0,0,0,18.04,0,0.686,0.686,0,0,0,.24-0.3A7.711,7.711,0,0,0,1337.99,648.27Z" transform="translate(-1319 -630)"/>
</svg>
