<svg xmlns="http://www.w3.org/2000/svg" width="20.75" height="23.812" viewBox="0 0 20.75 23.812">
  <metadata><?xpacket begin="﻿" id="W5M0MpCehiHzreSzNTczkc9d"?>
<x:xmpmeta xmlns:x="adobe:ns:meta/" x:xmptk="Adobe XMP Core 5.6-c138 79.159824, 2016/09/14-01:09:01        ">
   <rdf:RDF xmlns:rdf="http://www.w3.org/1999/02/22-rdf-syntax-ns#">
      <rdf:Description rdf:about=""/>
   </rdf:RDF>
</x:xmpmeta>
                                                                                                    
                                                                                                    
                                                                                                    
                                                                                                    
                                                                                                    
                                                                                                    
                                                                                                    
                                                                                                    
                                                                                                    
                                                                                                    
                                                                                                    
                                                                                                    
                                                                                                    
                                                                                                    
                                                                                                    
                                                                                                    
                                                                                                    
                                                                                                    
                                                                                                    
                                                                                                    
                           
<?xpacket end="w"?></metadata>
<defs>
    <style>
      .cls-1 {
        fill: #ffb400;
        fill-rule: evenodd;
      }
    </style>
  </defs>
  <path class="cls-1" d="M1335.95,735.075a2.342,2.342,0,0,0-1.59-.981,2.448,2.448,0,0,0-1.81.56l-1.77,1.377c-0.12-.086-0.25-0.168-0.36-0.247-0.17-.11-0.33-0.218-0.47-0.327a17.2,17.2,0,0,1-3.65-4.241,9.964,9.964,0,0,1-1.09-2.289c0.45-.322.88-0.665,1.3-1,0.15-.12.31-0.248,0.47-0.37a2.3,2.3,0,0,0,.43-3.449l-1.2-1.529c-0.14-.172-0.28-0.352-0.41-0.529-0.26-.347-0.54-0.7-0.83-1.046a2.369,2.369,0,0,0-1.58-.936,2.507,2.507,0,0,0-1.8.525s0,0-.01.009l-1.91,1.5a3.658,3.658,0,0,0-1.37,2.182,8.794,8.794,0,0,0,.18,3.779,21.781,21.781,0,0,0,3.05,6.829,23.625,23.625,0,0,0,7.09,7.076,12.331,12.331,0,0,0,4.24,1.833c0.11,0.017.22,0.036,0.32,0.047a3.812,3.812,0,0,0,3.04-.881,0.062,0.062,0,0,1,.02-0.025,10.9,10.9,0,0,1,.99-0.793c0.24-.177.48-0.366,0.73-0.565a2.5,2.5,0,0,0,.96-1.631,2.367,2.367,0,0,0-.56-1.805Zm1.15,5.468c-0.01,0-.01,0,0,0-0.22.184-.45,0.35-0.69,0.534a12.769,12.769,0,0,0-1.08.877,2.438,2.438,0,0,1-1.98.563c-0.08-.009-0.16-0.018-0.23-0.033a10.9,10.9,0,0,1-3.76-1.644,22.251,22.251,0,0,1-6.68-6.665,20.564,20.564,0,0,1-2.87-6.417,7.139,7.139,0,0,1-.17-3.191,2.273,2.273,0,0,1,.87-1.395l1.92-1.489a1.135,1.135,0,0,1,.8-0.261,1.064,1.064,0,0,1,.69.437,0.109,0.109,0,0,1,.01.019c0.27,0.319.53,0.649,0.79,1,0.14,0.178.28,0.356,0.42,0.542l1.2,1.526a0.961,0.961,0,0,1-.19,1.544c-0.17.128-.32,0.256-0.49,0.38-0.47.374-.92,0.725-1.4,1.06-0.01.008-.02,0.012-0.03,0.021a1.024,1.024,0,0,0-.4,1.1c0,0.015.01,0.031,0.01,0.047a11.027,11.027,0,0,0,1.29,2.823l0.01,0.006a18.376,18.376,0,0,0,3.94,4.572,6.613,6.613,0,0,0,.58.408c0.17,0.113.33,0.218,0.46,0.325,0.02,0.012.04,0.032,0.06,0.043a1.09,1.09,0,0,0,.48.185,1.072,1.072,0,0,0,.8-0.253l1.92-1.493a1.153,1.153,0,0,1,.8-0.284,1.055,1.055,0,0,1,.68.454c0,0.005,0,.005.01,0.009l2.42,3.085A0.991,0.991,0,0,1,1337.1,740.543Z" transform="translate(-1318.19 -720.063)"/>
</svg>
