<svg version="1.1" id="Слой_1" xmlns="http://www.w3.org/2000/svg" x="0px" y="0px"
	 viewBox="0 0 1358.1 1087.1" style="enable-background:new 0 0 1358.1 1087.1;" xml:space="preserve">
<style type="text/css">
	.st0{fill:#ffb400;}
</style>
<g>
	<path class="st0" d="M681.1-2.3c-9.6,47.3-19.3,94.5-28.9,141.8c-1.9,9.3-3.6,18.6-5.8,27.8c-0.4,1.7-2.1,3.8-3.7,4.3
		c-90.2,25.5-159.5,79.9-213.6,155.1c-42.5,59-72.7,124.3-94.8,193.2c-12.4,38.8-22.1,78.4-32.9,117.6c-0.2,0.8-0.2,1.6-0.4,3.1
		c81.4,0,162.6,0,244.4,0c-3,14.5-5.9,28.3-8.8,42.1c-25.5,121.8-51,243.5-76.5,365.3c-2.8,13.2-5.3,26.4-8,39.6
		c-149,0-298,0-447-0.1c-1.3,0-2.7-1.3-4-1.9c0.2-0.4,0.6-0.8,0.7-1.3c9.8-46.2,19.5-92.4,29.4-138.6c22-102.8,43-205.8,66.3-308.3
		c23-101.2,55.7-199.1,102.9-291.9c45.8-89.9,106.9-167.1,187.2-228.8C462,59.6,544.9,21.4,637.4,4.6C651.2,2,665.2,0,679.1-2.3
		C679.8-2.3,680.5-2.3,681.1-2.3z"/>
</g>
<g>
	<path class="st0" d="M1361.1-2.3c-9.6,47.3-19.3,94.5-28.9,141.8c-1.9,9.3-3.6,18.6-5.8,27.8c-0.4,1.7-2.1,3.8-3.7,4.3
		c-90.2,25.5-159.5,79.9-213.6,155.1c-42.5,59-72.7,124.3-94.8,193.2c-12.4,38.8-22.1,78.4-32.9,117.6c-0.2,0.8-0.2,1.6-0.4,3.1
		c81.4,0,162.6,0,244.4,0c-3,14.5-5.9,28.3-8.8,42.1c-25.5,121.8-51,243.5-76.5,365.3c-2.8,13.2-5.3,26.4-8,39.6
		c-149,0-298,0-447-0.1c-1.3,0-2.7-1.3-4-1.9c0.2-0.4,0.6-0.8,0.7-1.3c9.8-46.2,19.5-92.4,29.4-138.6c22-102.8,43-205.8,66.3-308.3
		c23-101.2,55.7-199.1,102.9-291.9c45.8-89.9,106.9-167.1,187.2-228.8c74.4-57.2,157.3-95.3,249.8-112.2c13.9-2.5,27.8-4.6,41.8-6.8
		C1359.8-2.3,1360.5-2.3,1361.1-2.3z"/>
</g>
</svg>
