<svg xmlns="http://www.w3.org/2000/svg" xmlns:xlink="http://www.w3.org/1999/xlink" width="26" height="50" viewBox="0 0 26 50"><defs><path id="v5vja" d="M859.13 3977.33c.48 0 .8.34.8.84 0 .5-.32.83-.8.83-.5 0-.82-.33-.82-.83 0-.5.33-.84.82-.84zm10.56 8.34c0 .5-.33.83-.82.83-.48 0-.8-.33-.8-.83 0-.5.32-.84.8-.84.5 0 .82.34.82.84zm-3.25-18.34c0 .5-.49.84-1.22.84s-1.22-.42-1.22-.84c0-.5.49-.83 1.22-.83s1.22.33 1.22.83zm9.54-.83v.01l-.12.9-3.74 24.17c-.02.33-.17.62-.42.87-1.3 1.4-5.92 1.55-7.6 1.55h-.1c-1.87 0-7.96-.17-8.13-2.42l-3.73-24.08c-.1-.67-.2-1.44-.29-2.27-.55-4.92-.85-10.93-.85-16.31v-1.59-.1c.27-3.15 11.72-3.23 13-3.23 1.28 0 12.73.08 13 3.22V3948.92c0 4.67-.3 11.6-1.02 17.58zm-22.78-4.57a10.45 10.45 0 0 1 13.64 1.15 8.85 8.85 0 0 0 7.58 2.68c.56-4.86.96-11.17.96-16.6a16.4 16.4 0 0 1-3.92.99 54.9 54.9 0 0 1-14.92 0 16.4 16.4 0 0 1-3.92-.98c0 4.13.23 8.7.58 12.76zm10.8-16.26c-6.65 0-10.47 1-11.29 1.66.72.58 4.27 1.6 10.6 1.67h.04a71.16 71.16 0 0 0 1.3 0h.04c6.33-.07 9.88-1.09 10.6-1.67-.82-.67-4.64-1.66-11.29-1.66zm0 46.66c3.74 0 6.1-.66 6.5-1l3.72-24c-3.08.33-6.24-.83-8.51-3.16a8.96 8.96 0 0 0-12.34-.35 116.96 116.96 0 0 0 .4 3.35l3.73 24.16c.49.34 2.76 1 6.5 1zm-5.69-20.83c-.9 0-1.62-.75-1.62-1.67v-1.66c0-.92.73-1.67 1.62-1.67h1.63c.9 0 1.62.75 1.62 1.67v1.66c0 .92-.73 1.67-1.62 1.67zm0-1.67h1.63v-1.66h-1.63zm11.38 7.5h-1.63c-.9 0-1.62-.75-1.62-1.66V3974c0-.92.73-1.67 1.62-1.67h1.63c.9 0 1.62.75 1.62 1.67v1.67c0 .91-.73 1.66-1.62 1.66zm0-3.33h-1.63v1.67h1.63zm-6.5 8.33v1.67c0 .92-.73 1.67-1.63 1.67h-1.62c-.9 0-1.63-.75-1.63-1.67v-1.67c0-.91.73-1.66 1.63-1.66h1.62c.9 0 1.63.75 1.63 1.66zm-1.63 0h-1.62v1.67h1.62z"/></defs><g><g transform="translate(-851 -3944)"><use fill="#599e39" xlink:href="#v5vja"/></g></g></svg>