<svg xmlns="http://www.w3.org/2000/svg" xmlns:xlink="http://www.w3.org/1999/xlink" width="50" height="50" viewBox="0 0 50 50"><defs><path id="vdb4a" d="M1700.41 3993.04c-.05.59-.58.96-1.11.9a25 25 0 0 1-22.3-24.92c0-6.92 2.8-13.2 7.42-17.67a24.84 24.84 0 0 1 35.27 0 25.1 25.1 0 0 1 6.94 21.88c-.1.54-.64.9-1.17.8-.53-.1-.9-.64-.8-1.17.12-.64.17-1.28.22-1.92.05-.64.05-1.27.05-1.91 0-6.4-2.6-12.14-6.67-16.3a22.92 22.92 0 0 0-32.52 0 23.04 23.04 0 0 0-6.73 16.3c0 5.85 2.23 11.29 5.88 15.39 3.66 4.1 8.8 6.86 14.62 7.5.58.06.95.59.9 1.12zm.53-5.48c-.05.58-.58.96-1.11.9a19.41 19.41 0 0 1-12.34-6.39 19.38 19.38 0 0 1-4.98-13.04c0-5.43 2.17-10.33 5.67-13.9a19.37 19.37 0 0 1 27.54 0 19.57 19.57 0 0 1 5.72 13.84c0 1.5-.16 2.99-.48 4.42a19.85 19.85 0 0 1-1.48 4.21.94.94 0 0 1-1.33.48.95.95 0 0 1-.47-1.33c.58-1.23 1-2.5 1.22-3.78.2-1.01.37-1.97.42-2.98h-2.49a1 1 0 0 1-1-1.02 1 1 0 0 1 1-1h2.49a17.57 17.57 0 0 0-5.08-11.4 17.16 17.16 0 0 0-11.34-5.11v2.5a1 1 0 0 1-2.01 0v-2.5a17.4 17.4 0 0 0-11.34 5.1 17.34 17.34 0 0 0-5.08 11.4h2.49a1 1 0 0 1 1 1.01 1 1 0 0 1-1 1.02h-2.5a17.57 17.57 0 0 0 15.58 16.45c.58.05.95.58.9 1.12zm3.23-16.3c-.58.54-1.38.9-2.22.9-.85 0-1.64-.31-2.23-.9a3.17 3.17 0 0 1-.74-1.22h-6.04a1 1 0 0 1-1-1.01 1 1 0 0 1 1-1.02h6.04c.16-.47.42-.9.74-1.22l.06-.05c.31-.32.74-.54 1.16-.7v-8.14a1 1 0 0 1 1-1.01c.59 0 1.01.42 1.01 1v8.16c.48.15.9.42 1.22.74.53.59.9 1.38.9 2.24 0 .85-.32 1.65-.9 2.23zm-1-2.29c0-.32-.11-.58-.32-.8-.16-.2-.48-.32-.8-.32-.31 0-.58.11-.8.32l-.04.06c-.22.21-.32.48-.32.8 0 .32.1.58.32.8.15.2.47.32.79.32.32 0 .58-.11.8-.32.2-.22.31-.48.37-.86z"/></defs><g><g transform="translate(-1677 -3944)"><use fill="#599e39" xlink:href="#vdb4a"/></g></g></svg>